<svg width="28" height="25" viewBox="0 0 28 25" fill="none" xmlns="http://www.w3.org/2000/svg">
<path d="M12.5 11.25L2.5 5V17.5H15V20H2.5C1.8125 20 1.22417 19.7554 0.735 19.2663C0.245 18.7763 0 18.1875 0 17.5V2.5C0 1.8125 0.245 1.22375 0.735 0.73375C1.22417 0.24458 1.8125 0 2.5 0H22.5C23.1875 0 23.7763 0.24458 24.2663 0.73375C24.7554 1.22375 25 1.8125 25 2.5V8.75H22.5V5L12.5 11.25ZM12.5 8.75L22.5 2.5H2.5L12.5 8.75ZM22.5 25C21.125 25 19.9479 24.5104 18.9688 23.5312C17.9896 22.5521 17.5 21.375 17.5 20V14.375C17.5 13.5 17.8021 12.7604 18.4062 12.1562C19.0104 11.5521 19.75 11.25 20.625 11.25C21.5 11.25 22.2396 11.5521 22.8438 12.1562C23.4479 12.7604 23.75 13.5 23.75 14.375V20H21.25V14.375C21.25 14.2083 21.1875 14.0625 21.0625 13.9375C20.9375 13.8125 20.7917 13.75 20.625 13.75C20.4583 13.75 20.3125 13.8125 20.1875 13.9375C20.0625 14.0625 20 14.2083 20 14.375V20C20 20.6875 20.2446 21.2763 20.7337 21.7663C21.2237 22.2554 21.8125 22.5 22.5 22.5C23.1875 22.5 23.7763 22.2554 24.2663 21.7663C24.7554 21.2763 25 20.6875 25 20V15H27.5V20C27.5 21.375 27.0104 22.5521 26.0312 23.5312C25.0521 24.5104 23.875 25 22.5 25ZM2.5 5V2.5V17.5V5Z" fill="white"/>
</svg>
