<svg width="23" height="23" viewBox="0 0 23 23" fill="none" xmlns="http://www.w3.org/2000/svg">
<path d="M16.25 10V6.25H12.5V3.75H16.25V0H18.75V3.75H22.5V6.25H18.75V10H16.25ZM21.1875 22.5C18.5 22.5 15.8804 21.9008 13.3288 20.7025C10.7762 19.505 8.5158 17.9217 6.5475 15.9525C4.57833 13.9842 2.995 11.7238 1.7975 9.1712C0.59917 6.6196 0 4 0 1.3125C0 0.9375 0.125 0.625 0.375 0.375C0.625 0.125 0.9375 0 1.3125 0H6.375C6.6667 0 6.9271 0.09375 7.1563 0.28125C7.3854 0.46875 7.5208 0.70833 7.5625 1L8.375 5.375C8.4167 5.66667 8.4117 5.93208 8.36 6.17125C8.3075 6.4112 8.1875 6.625 8 6.8125L4.96875 9.875C5.84375 11.375 6.9429 12.7812 8.2662 14.0938C9.5887 15.4062 11.0417 16.5417 12.625 17.5L15.5625 14.5625C15.75 14.375 15.995 14.2342 16.2975 14.14C16.5992 14.0467 16.8958 14.0208 17.1875 14.0625L21.5 14.9375C21.7917 15 22.0312 15.1404 22.2188 15.3587C22.4062 15.5779 22.5 15.8333 22.5 16.125V21.1875C22.5 21.5625 22.375 21.875 22.125 22.125C21.875 22.375 21.5625 22.5 21.1875 22.5ZM3.78125 7.5L5.84375 5.4375L5.3125 2.5H2.53125C2.63542 3.35417 2.78125 4.19792 2.96875 5.03125C3.15625 5.86458 3.42708 6.6875 3.78125 7.5ZM14.9688 18.6875C15.7812 19.0417 16.6096 19.3229 17.4537 19.5312C18.2971 19.7396 19.1458 19.875 20 19.9375V17.1875L17.0625 16.5938L14.9688 18.6875Z" fill="white"/>
</svg>
